<svg width="18" height="19" viewBox="0 0 18 19" fill="none" xmlns="http://www.w3.org/2000/svg">
<path d="M2 15.5957C2 16.148 2.44772 16.5957 3 16.5957H10C10.5523 16.5957 11 16.148 11 15.5957V12.5957C11 12.3124 11.096 12.0747 11.288 11.8827C11.48 11.6907 11.7173 11.595 12 11.5957H15C15.5523 11.5957 16 11.148 16 10.5957V3.5957C16 3.04342 15.5523 2.5957 15 2.5957H3C2.44772 2.5957 2 3.04342 2 3.5957V15.5957ZM2 18.5957C1.45 18.5957 0.979002 18.3997 0.587002 18.0077C0.195002 17.6157 -0.000664969 17.145 1.69779e-06 16.5957V2.5957C1.69779e-06 2.0457 0.196002 1.5747 0.588002 1.1827C0.980002 0.790705 1.45067 0.595038 2 0.595705H16C16.55 0.595705 17.021 0.791705 17.413 1.1837C17.805 1.5757 18.0007 2.04637 18 2.5957V12.1815C18 12.4467 17.8946 12.7011 17.7071 12.8886L12.2929 18.3028C12.1054 18.4903 11.851 18.5957 11.5858 18.5957H2ZM5 11.5957C4.71667 11.5957 4.479 11.4997 4.287 11.3077C4.095 11.1157 3.99934 10.8784 4 10.5957C4 10.3124 4.096 10.0747 4.288 9.8827C4.48 9.6907 4.71734 9.59504 5 9.59571H8C8.28334 9.59571 8.521 9.6917 8.713 9.88371C8.905 10.0757 9.00067 10.313 9 10.5957C9 10.879 8.904 11.1167 8.712 11.3087C8.52 11.5007 8.28267 11.5964 8 11.5957H5ZM5 7.59571C4.71667 7.59571 4.479 7.4997 4.287 7.3077C4.095 7.11571 3.99934 6.87837 4 6.59571C4 6.31237 4.096 6.0747 4.288 5.8827C4.48 5.6907 4.71734 5.59504 5 5.59571H13C13.2833 5.59571 13.521 5.69171 13.713 5.88371C13.905 6.07571 14.0007 6.31304 14 6.59571C14 6.87904 13.904 7.11671 13.712 7.30871C13.52 7.50071 13.2827 7.59637 13 7.59571H5Z" fill="#74A2B2"/>
</svg>
